<svg width="14" height="20" viewBox="0 0 14 20" fill="none" xmlns="http://www.w3.org/2000/svg">
<path d="M7 2.35294C9.56667 2.35294 11.6667 4.47059 11.6667 7.05882C11.6667 9.52941 9.21667 13.5294 7 16.3529C4.78333 13.4118 2.33333 9.52941 2.33333 7.05882C2.33333 4.47059 4.43333 2.35294 7 2.35294ZM7 0C3.15 0 0 3.17647 0 7.05882C0 12.3529 7 20 7 20C7 20 14 12.2353 14 7.05882C14 3.17647 10.85 0 7 0ZM7 4.70588C5.71667 4.70588 4.66667 5.76471 4.66667 7.05882C4.66667 8.35294 5.71667 9.41177 7 9.41177C8.28333 9.41177 9.33333 8.35294 9.33333 7.05882C9.33333 5.76471 8.28333 4.70588 7 4.70588Z" fill="#03A9F4"/>
</svg>
