<svg width="18" height="18" viewBox="0 0 18 18" fill="none" xmlns="http://www.w3.org/2000/svg">
<path fill-rule="evenodd" clip-rule="evenodd" d="M16.68 9.18182C16.68 8.61454 16.6291 8.06909 16.5345 7.54545H9V10.64H13.3055C13.12 11.64 12.5564 12.4873 11.7091 13.0545V15.0618H14.2945C15.8073 13.6691 16.68 11.6182 16.68 9.18182Z" fill="#4285F4"/>
<path fill-rule="evenodd" clip-rule="evenodd" d="M9.00001 17C11.16 17 12.9709 16.2836 14.2946 15.0618L11.7091 13.0545C10.9927 13.5345 10.0764 13.8182 9.00001 13.8182C6.91638 13.8182 5.15274 12.4109 4.52365 10.52H1.85092V12.5927C3.16729 15.2073 5.87274 17 9.00001 17Z" fill="#34A853"/>
<path fill-rule="evenodd" clip-rule="evenodd" d="M4.52364 10.52C4.36364 10.04 4.27273 9.52727 4.27273 9C4.27273 8.47273 4.36364 7.96 4.52364 7.48V5.40727H1.85091C1.30909 6.48727 1 7.70909 1 9C1 10.2909 1.30909 11.5127 1.85091 12.5927L4.52364 10.52Z" fill="#FBBC05"/>
<path fill-rule="evenodd" clip-rule="evenodd" d="M9.00001 4.18182C10.1746 4.18182 11.2291 4.58545 12.0582 5.37818L14.3527 3.08364C12.9673 1.79273 11.1564 1 9.00001 1C5.87274 1 3.16729 2.79273 1.85092 5.40727L4.52365 7.48C5.15274 5.58909 6.91638 4.18182 9.00001 4.18182Z" fill="#EA4335"/>
</svg>
