<svg width="24" height="24" viewBox="0 0 24 24" fill="none" xmlns="http://www.w3.org/2000/svg">
<path d="M4 4H20C20.5304 4 21.0391 4.21071 21.4142 4.58579C21.7893 4.96086 22 5.46957 22 6V18C22 18.5304 21.7893 19.0391 21.4142 19.4142C21.0391 19.7893 20.5304 20 20 20H4C3.46957 20 2.96086 19.7893 2.58579 19.4142C2.21071 19.0391 2 18.5304 2 18V6C2 5.46957 2.21071 4.96086 2.58579 4.58579C2.96086 4.21071 3.46957 4 4 4ZM4 18H20V6H4V18Z" fill="#03A9F4" fill-opacity="0.87"/>
<path d="M6 12L10 9V11H13V13H10V15L6 12Z" fill="#03A9F4" fill-opacity="0.87"/>
<rect opacity="0.5" x="15" y="6" width="5" height="12" fill="#03A9F4" fill-opacity="0.87"/>
</svg>
