<svg width="24" height="24" viewBox="0 0 24 24" fill="none" xmlns="http://www.w3.org/2000/svg">
<path fill-rule="evenodd" clip-rule="evenodd" d="M17 13C18.5297 13 19.9258 12.4272 20.9855 11.4849C20.9951 11.6553 21 11.8271 21 12C21 16.9707 16.9706 21 12 21C7.02945 21 3 16.9707 3 12C3 7.0293 7.02945 3 12 3C12.1728 3 12.3445 3.00488 12.515 3.01465C11.5725 4.07422 11 5.47021 11 7C11 10.3135 13.6863 13 17 13ZM5 12C5 9.02588 6.85483 6.48486 9.47083 5.4707C9.16678 6.25537 9 7.10791 9 8C9 11.8662 12.134 15 16 15C16.8918 15 17.7447 14.8335 18.5292 14.5293C17.5151 17.1455 14.9742 19 12 19C8.134 19 5 15.8662 5 12Z" fill="#757575" fill-opacity="0.87"/>
</svg>
