<svg width="24" height="24" viewBox="0 0 24 24" fill="none" xmlns="http://www.w3.org/2000/svg">
<path d="M12.7071 2.29289C12.5196 2.10536 12.2652 2 12 2C11.7348 2 11.4804 2.10536 11.2929 2.29289C11.1054 2.48043 11 2.73478 11 3V4C11 4.26522 11.1054 4.51957 11.2929 4.70711C11.4804 4.89464 11.7348 5 12 5C12.2652 5 12.5196 4.89464 12.7071 4.70711C12.8946 4.51957 13 4.26522 13 4V3C13 2.73478 12.8946 2.48043 12.7071 2.29289Z" fill="#757575" fill-opacity="0.87"/>
<path d="M17.243 18.657L16.536 17.95C16.3538 17.7614 16.253 17.5088 16.2553 17.2466C16.2576 16.9844 16.3628 16.7336 16.5482 16.5482C16.7336 16.3628 16.9844 16.2576 17.2466 16.2553C17.5088 16.253 17.7614 16.3538 17.95 16.536L18.657 17.243C18.8392 17.4316 18.94 17.6842 18.9377 17.9464C18.9354 18.2086 18.8302 18.4594 18.6448 18.6448C18.4594 18.8302 18.2086 18.9354 17.9464 18.9377C17.6842 18.94 17.4316 18.8392 17.243 18.657Z" fill="#757575" fill-opacity="0.87"/>
<path d="M18.9488 6.05C18.9488 5.78484 18.8435 5.53053 18.656 5.343C18.4685 5.15553 18.2152 5.05021 17.95 5.05021C17.6848 5.05021 17.4305 5.15553 17.243 5.343L16.536 6.05C16.4405 6.14225 16.3643 6.25259 16.3119 6.3746C16.2595 6.4966 16.2319 6.62782 16.2307 6.7606C16.2296 6.89338 16.2549 7.02506 16.3052 7.14795C16.3555 7.27085 16.4297 7.3825 16.5236 7.4764C16.6175 7.57029 16.7291 7.64454 16.852 7.69482C16.9749 7.7451 17.1066 7.7704 17.2394 7.76925C17.3722 7.7681 17.5034 7.74051 17.6254 7.6881C17.7474 7.63569 17.8578 7.55951 17.95 7.464L18.656 6.757C18.8435 6.56947 18.9488 6.31516 18.9488 6.05Z" fill="#757575" fill-opacity="0.87"/>
<path d="M21.7071 12.7071C21.5196 12.8946 21.2652 13 21 13H20C19.7348 13 19.4804 12.8946 19.2929 12.7071C19.1054 12.5196 19 12.2652 19 12C19 11.7348 19.1054 11.4804 19.2929 11.2929C19.4804 11.1054 19.7348 11 20 11H21C21.2652 11 21.5196 11.1054 21.7071 11.2929C21.8946 11.4804 22 11.7348 22 12C22 12.2652 21.8946 12.5196 21.7071 12.7071Z" fill="#757575" fill-opacity="0.87"/>
<path d="M12.7071 19.2929C12.5196 19.1054 12.2652 19 12 19C11.7348 19 11.4804 19.1054 11.2929 19.2929C11.1054 19.4804 11 19.7348 11 20V21C11 21.2652 11.1054 21.5196 11.2929 21.7071C11.4804 21.8946 11.7348 22 12 22C12.2652 22 12.5196 21.8946 12.7071 21.7071C12.8946 21.5196 13 21.2652 13 21V20C13 19.7348 12.8946 19.4804 12.7071 19.2929Z" fill="#757575" fill-opacity="0.87"/>
<path d="M6.37441 7.68093C6.25308 7.63062 6.14284 7.55691 6.05 7.464L5.343 6.757C5.16084 6.5684 5.06005 6.3158 5.06233 6.0536C5.0646 5.7914 5.16977 5.54059 5.35518 5.35518C5.54059 5.16977 5.7914 5.0646 6.0536 5.06233C6.3158 5.06005 6.5684 5.16084 6.757 5.343L7.465 6.05C7.55784 6.14291 7.63148 6.2532 7.6817 6.37457C7.73192 6.49593 7.75775 6.62601 7.7577 6.75735C7.75766 6.8887 7.73174 7.01876 7.68143 7.14009C7.63112 7.26142 7.55741 7.37166 7.4645 7.4645C7.37159 7.55734 7.2613 7.63098 7.13993 7.6812C7.01857 7.73142 6.88849 7.75725 6.75715 7.7572C6.6258 7.75716 6.49574 7.73124 6.37441 7.68093Z" fill="#757575" fill-opacity="0.87"/>
<path d="M6.757 18.657L7.464 17.95C7.64616 17.7614 7.74695 17.5088 7.74467 17.2466C7.7424 16.9844 7.63723 16.7336 7.45182 16.5482C7.26641 16.3628 7.0156 16.2576 6.7534 16.2553C6.49121 16.253 6.2386 16.3538 6.05 16.536L5.343 17.243C5.16084 17.4316 5.06005 17.6842 5.06233 17.9464C5.0646 18.2086 5.16977 18.4594 5.35518 18.6448C5.54059 18.8302 5.7914 18.9354 6.0536 18.9377C6.3158 18.94 6.5684 18.8392 6.757 18.657Z" fill="#757575" fill-opacity="0.87"/>
<path d="M4.70711 12.7071C4.51957 12.8946 4.26522 13 4 13H3C2.73478 13 2.48043 12.8946 2.29289 12.7071C2.10536 12.5196 2 12.2652 2 12C2 11.7348 2.10536 11.4804 2.29289 11.2929C2.48043 11.1054 2.73478 11 3 11H4C4.26522 11 4.51957 11.1054 4.70711 11.2929C4.89464 11.4804 5 11.7348 5 12C5 12.2652 4.89464 12.5196 4.70711 12.7071Z" fill="#757575" fill-opacity="0.87"/>
<path fill-rule="evenodd" clip-rule="evenodd" d="M17 12C17 14.7614 14.7614 17 12 17C9.23858 17 7 14.7614 7 12C7 9.23858 9.23858 7 12 7C14.7614 7 17 9.23858 17 12ZM15 12C15 13.6569 13.6569 15 12 15C10.3431 15 9 13.6569 9 12C9 10.3431 10.3431 9 12 9C13.6569 9 15 10.3431 15 12Z" fill="#757575" fill-opacity="0.87"/>
</svg>
