<svg width="18" height="12" viewBox="0 0 18 12" fill="none" xmlns="http://www.w3.org/2000/svg">
<path d="M9 3.75C9.59674 3.75 10.169 3.98705 10.591 4.40901C11.0129 4.83097 11.25 5.40326 11.25 6C11.25 6.59674 11.0129 7.16903 10.591 7.59099C10.169 8.01295 9.59674 8.25 9 8.25C8.40326 8.25 7.83097 8.01295 7.40901 7.59099C6.98705 7.16903 6.75 6.59674 6.75 6C6.75 5.40326 6.98705 4.83097 7.40901 4.40901C7.83097 3.98705 8.40326 3.75 9 3.75ZM9 0.375C12.75 0.375 15.9525 2.7075 17.25 6C15.9525 9.2925 12.75 11.625 9 11.625C5.25 11.625 2.0475 9.2925 0.75 6C2.0475 2.7075 5.25 0.375 9 0.375ZM2.385 6C3.6225 8.52 6.18 10.125 9 10.125C11.82 10.125 14.3775 8.52 15.615 6C14.3775 3.48 11.82 1.875 9 1.875C6.18 1.875 3.6225 3.48 2.385 6Z" fill="#757575" fill-opacity="0.87"/>
</svg>
