<svg width="20" height="20" viewBox="0 0 20 20" fill="none" xmlns="http://www.w3.org/2000/svg">
<path d="M10 13C10.81 13 11.5 12.7 12.11 12.11C12.7 11.5 13 10.81 13 10C13 9.19 12.7 8.5 12.11 7.89C11.5 7.3 10.81 7 10 7C9.19 7 8.5 7.3 7.89 7.89C7.3 8.5 7 9.19 7 10C7 10.81 7.3 11.5 7.89 12.11C8.5 12.7 9.19 13 10 13ZM10 0C12.75 0 15.1 1 17.05 2.95C19 4.9 20 7.25 20 10V11.45C20 12.45 19.65 13.3 19 14C18.3 14.67 17.5 15 16.5 15C15.3 15 14.31 14.5 13.56 13.5C12.56 14.5 11.38 15 10 15C8.63 15 7.45 14.5 6.46 13.54C5.5 12.55 5 11.38 5 10C5 8.63 5.5 7.45 6.46 6.46C7.45 5.5 8.63 5 10 5C11.38 5 12.55 5.5 13.54 6.46C14.5 7.45 15 8.63 15 10V11.45C15 11.86 15.16 12.22 15.46 12.53C15.76 12.84 16.11 13 16.5 13C16.92 13 17.27 12.84 17.57 12.53C17.87 12.22 18 11.86 18 11.45V10C18 7.81 17.23 5.93 15.65 4.35C14.07 2.77 12.19 2 10 2C7.81 2 5.93 2.77 4.35 4.35C2.77 5.93 2 7.81 2 10C2 12.19 2.77 14.07 4.35 15.65C5.93 17.23 7.81 18 10 18H15V20H10C7.25 20 4.9 19 2.95 17.05C1 15.1 0 12.75 0 10C0 7.25 1 4.9 2.95 2.95C4.9 1 7.25 0 10 0Z" fill="#F44336"/>
</svg>
